<?xml version="1.0" encoding="UTF-8"?>
<svg viewBox="0 0 951.12 576.75" xmlns="http://www.w3.org/2000/svg" xmlns:xlink="http://www.w3.org/1999/xlink">
 <defs>
  <linearGradient id="b" x1=".25828" x2=".96328" y1=".57298" y2=".12804">
   <stop stop-color="#aa734d" offset="0"/>
   <stop stop-color="#aa734d" stop-opacity="0" offset="1"/>
  </linearGradient>
  <linearGradient id="i" x1=".47242" x2=".55525" y1=".38121" y2=".5">
   <stop stop-color="#665041" offset="0"/>
   <stop stop-color="#cfa285" stop-opacity="0" offset="1"/>
  </linearGradient>
  <linearGradient id="k" x1=".52943" x2=".66389" y1=".37849" y2=".53282">
   <stop stop-color="#65574e" offset="0"/>
   <stop stop-color="#efcfba" stop-opacity="0" offset="1"/>
  </linearGradient>
  <linearGradient id="j" x1=".46439" x2=".5834" y1=".37598" y2=".57704" xlink:href="#a"/>
  <linearGradient id="h" x1=".48412" x2=".53583" y1=".40011" y2=".52392">
   <stop stop-color="#664b38" offset="0"/>
   <stop stop-color="#bf8c6a" stop-opacity="0" offset="1"/>
  </linearGradient>
  <linearGradient id="c" x1=".15052" y1=".50001" y2=".052336">
   <stop stop-color="#894618" offset="0"/>
   <stop stop-color="#894618" stop-opacity="0" offset="1"/>
  </linearGradient>
  <linearGradient id="g" x1=".35704" x2=".52438" y1=".34672" y2=".69531" xlink:href="#a"/>
  <linearGradient id="d" x1=".54864" x2=".60223" y1=".44061" y2=".63859">
   <stop stop-color="#331400" offset="0"/>
   <stop stop-color="#803300" stop-opacity="0" offset="1"/>
  </linearGradient>
  <linearGradient id="f" x1=".51927" x2=".54139" y1=".53239" y2=".60135">
   <stop stop-color="#663d22" offset="0"/>
   <stop stop-color="#9f5f35" stop-opacity="0" offset="1"/>
  </linearGradient>
  <linearGradient id="e" x1=".52817" x2=".58699" y1=".5633" y2=".70737">
   <stop stop-color="#663412" offset="0"/>
   <stop stop-color="#8f491a" stop-opacity="0" offset="1"/>
  </linearGradient>
  <linearGradient id="l" x1=".28555" x2=".44536" y1=".58135" y2=".1252">
   <stop offset="0"/>
   <stop stop-opacity="0" offset="1"/>
  </linearGradient>
  <linearGradient id="a">
   <stop stop-color="#665449" offset="0"/>
   <stop stop-color="#dfb99f" stop-opacity="0" offset="1"/>
  </linearGradient>
 </defs>
 <g fill-rule="evenodd">
  <path d="m334.93 110.9c-49.661 76.38-127.14 85.704-206.77 121.21-48.505 21.628-71.072 71.485-45.309 122.54 123.66 32.804 235.33 84.43 429.37 208.91 20.609 13.221 87.126-8.493 102.36-16.785 19.789-10.775 133.66-123.35 269.96-135.52 5.1796-0.46558-30.634-12.212-62.75-23.009 14.613-5.3168 29.715-9.4437 45.175-11.969 2.2722-0.37116-4.2468-4.8029-15.308-11.321 11.322-2.1484 22.982-3.5752 34.958-4.0554-7.1502-5.5724-14.472-10.713-21.911-15.518 6.9908-1.3783 14.048-2.5103 21.185-3.295-10.045-5.5905-34.011-12.531-61.758-19.376 17.167-11.794 35.449-24.086 55.599-37.09-9.3558 0.16629-29.299-1.8471-51.713-4.506 8.3929-8.9222 16.668-18.063 24.856-27.458-6.6834 0.11877-13.661 0.094482-20.908-0.084503 3.1564-3.5274 6.2848-7.0785 9.418-10.674-15.356 0.27289-32.279-0.24997-50.465-1.5771 7.1627-9.3007 14.192-18.739 21.135-28.303-15.474 1.6876-32.626 2.7388-51.135 3.0697 9.0402-13.494 18.081-27.079 27.407-40.695-124.53 17.086-245.87 38.787-453.39-64.492z" fill="#1e0b00" fill-opacity=".41" stroke-width="12.5"/>
  <path d="m479.28 478.11l67.911 58.938 108.01-40.424s-137.77-111.08-140.8-105.8c-3.0262 5.2806-32.828 88.929-35.126 87.287z" fill="#5e2500"/>
  <path d="m304.88 24.331c-51.187 84.754-135.88 95.1-221.78 134.5-52.326 23.999-74.92 79.323-44.375 135.97 137.28 36.401 262.2 93.687 480.81 231.81 23.218 14.67 95.325-9.4241 111.69-18.625 21.262-11.956 141.38-136.87 290.56-150.38 5.6687-0.51663-34.186-13.55-69.938-25.531 15.817-5.8997 32.224-10.479 49.094-13.281 2.4794-0.41186-4.876-5.3294-17.312-12.562 12.342-2.3839 25.086-3.9671 38.219-4.5-8.0989-6.1833-16.367-11.888-24.75-17.219 7.618-1.5294 15.32-2.7856 23.125-3.6562-11.28-6.2034-37.909-13.905-68.688-21.5 18.337-13.087 37.877-26.727 59.438-41.156-10.269 0.18451-32.263-2.0496-57-5 8.8261-9.9003 17.513-20.043 26.094-30.469-7.3358 0.1318-15.001 0.10486-22.969-0.09375 3.3118-3.9141 6.5918-7.8546 9.875-11.844-16.854 0.30283-35.466-0.27734-55.5-1.75 7.4582-10.32 14.764-20.794 21.969-31.406-16.922 1.8727-35.715 3.039-56.031 3.4062 9.3359-14.974 18.668-30.048 28.312-45.156-136.03 18.959-268.36 43.04-500.84-71.562z" fill="none" stroke="#000" stroke-width="12.5"/>
  <g stroke-width="8">
   <path d="m799.84 310.54c10.558-1.4105-225.04 25.424-279.62 52.549-54.586 27.126-17.206 175.6 110.76 143.17 23.646-5.993 141.37-136.89 290.55-150.39 10.37-0.94504-132.24-43.92-121.68-45.33z" fill="#803300"/>
   <path d="m799.84 310.54c10.558-1.4105-225.04 25.424-279.62 52.549-54.586 27.126-17.206 175.6 110.76 143.17 23.646-5.993 141.37-136.89 290.55-150.39 10.37-0.94504-132.24-43.92-121.68-45.33z" fill="url(#d)"/>
   <path d="m756.75 232.36c11.212-0.45493-211.54 95.491-265.65 119.47-54.108 23.976 30.138 194.7 150.18 133.05 21.613-11.1 125.6-145.6 259.4-167.83 10.536-1.7501-155.14-84.237-143.93-84.692z" fill="#8f491a"/>
   <path d="m756.75 232.36c11.212-0.45493-211.54 95.491-265.65 119.47-54.108 23.976 30.138 194.7 150.18 133.05 21.613-11.1 125.6-145.6 259.4-167.83 10.536-1.7501-155.14-84.237-143.93-84.692z" fill="url(#e)"/>
   <path d="m921.59 300c-72.949-55.695-158.11-74.759-243.14-94.208-74.332 90.313-46.571 100.83-177.94 159.04-54.108 23.976 40.957 172.16 145.26 100.5 21.602-14.843 122.22-159.1 275.81-165.33z" fill="#9f5f35"/>
   <path d="m921.59 300c-72.949-55.695-158.11-74.759-243.14-94.208-74.332 90.313-46.571 100.83-177.94 159.04-54.108 23.976 40.957 172.16 145.26 100.5 21.602-14.843 122.22-159.1 275.81-165.33z" fill="url(#f)"/>
   <path d="m611.28 409.6c-53.998 24.224-72.01 103.63 32.293 31.959 20.677-14.208 133.79-146.51 276.41-162.42-15.049-8.2766-57.476-19.205-100.54-29.014-182.46 147.18-176.29 126.86-208.17 159.48z" fill="#af764f"/>
   <path d="m611.28 409.6c-53.998 24.224-72.01 103.63 32.293 31.959 20.677-14.208 133.79-146.51 276.41-162.42-15.049-8.2766-57.476-19.205-100.54-29.014-182.46 147.18-176.29 126.86-208.17 159.48z" fill="url(#g)"/>
   <path d="m611.47 413.02c-44.587 22.743-48.274 54.575-38.919 57.686-62.192-9.7668-114.96-41.43-101.48-49.276 81.085-47.167 333.1-216.15 358.99-212.86 33.565 4.2653 67.175 8.1418 80.644 7.8998-114.79 76.826-171.88 131.59-299.24 196.56z" fill="#bf8c6a"/>
   <path d="m611.47 413.02c-44.587 22.743-48.274 54.575-38.919 57.686-62.192-9.7668-114.96-41.43-101.48-49.276 81.085-47.167 333.1-216.15 358.99-212.86 33.565 4.2653 67.175 8.1418 80.644 7.8998-114.79 76.826-171.88 131.59-299.24 196.56z" fill="url(#h)"/>
   <path d="m593.45 400.46c-26.041 11.743-50.155 48.109-27.518 80.92-62.552-12.107-52.136-73.773-34.12-86.184 82.088-56.556 289.8-216.04 300.24-215.39 17.108 1.0763 33.089 1.4644 47.761 1.2008-74.332 90.313-155.38 160.38-286.36 219.45z" fill="#cfa285"/>
   <path d="m593.45 400.46c-26.041 11.743-50.155 48.109-27.518 80.92-62.552-12.107-52.136-73.773-34.12-86.184 82.088-56.556 289.8-216.04 300.24-215.39 17.108 1.0763 33.089 1.4644 47.761 1.2008-74.332 90.313-155.38 160.38-286.36 219.45z" fill="url(#i)"/>
   <path d="m467.7 410.48c42.647-21.903 278.7-249.87 311.29-246.17 32.583 3.6982 62.152 5.2203 87.739 4.7606-74.332 90.313-154.99 161.24-286.36 219.45-34.886 15.458-49.367 76.663-23.082 101.68 14.484 13.783-132.23-57.813-89.586-79.716z" fill="#dfb99f"/>
   <path d="m467.7 410.48c42.647-21.903 278.7-249.87 311.29-246.17 32.583 3.6982 62.152 5.2203 87.739 4.7606-74.332 90.313-154.99 161.24-286.36 219.45-34.886 15.458-49.367 76.663-23.082 101.68 14.484 13.783-132.23-57.813-89.586-79.716z" fill="url(#j)"/>
   <path d="m433.59 423.94c35.617-9.027 279-285.36 311.79-284.68 32.786 0.68091 62.369-0.52728 87.804-3.342-65.696 96.777-139.48 181.98-266.35 245.03-39.393 19.576-55.168 93.055-12.802 120.25 16.34 10.489-156.06-68.232-120.44-77.259z" fill="#efcfba"/>
   <path d="m433.59 423.94c35.617-9.027 279-285.36 311.79-284.68 32.786 0.68091 62.369-0.52728 87.804-3.342-65.696 96.777-139.48 181.98-266.35 245.03-39.393 19.576-55.168 93.055-12.802 120.25 16.34 10.489-156.06-68.232-120.44-77.259z" fill="url(#k)"/>
   <path d="m304.63 22.596c232.49 114.6 364.81 90.507 500.83 71.548-62.934 98.595-112.5 196.69-237.54 263.3-53.797 28.658-109.37 190.29 63.238 149.32-40.853 21.539-98.771 26.539-111.89 18.104-217.6-139.9-343.52-195.41-480.8-231.81-30.544-56.646-7.9664-111.94 44.36-135.94 85.904-39.4 170.61-49.756 221.8-134.51z" fill="#ffe6d5"/>
  </g>
  <g stroke="#000">
   <path d="m190.16 347.42s-32.912-72.978 91.581-121.63c34.341-2.2105 160.1 67.772 208.92 87.288 0 0-148.82 57.238-91.581 141.66-121.63-77.271-213.21-105.89-208.92-107.32z" fill="url(#l)"/>
   <path d="m291.75 214.34l273.31 98.736s40.067-10.017 50.083-24.326c-36.645-6.9419-303.32-97.763-279.04-101.6l-44.36 27.188z"/>
  </g>
  <path d="m413.38 460.47s-67.255-64.393 93.012-141.66l50.083 15.74s-163.13 104.46-62.962 177.44c-51.514-34.343-80.133-51.514-80.133-51.514z" fill="url(#c)"/>
  <path d="m303.2 178.57s-181.73 53.214-144.53 151.95c-50.083-14.31-103.03-32.643-103.03-32.643s-57.238-119.31 133.08-162.24l114.48 42.928z" fill="url(#b)"/>
 </g>
</svg>
